<?xml version="1.0" standalone="no"?>
<!DOCTYPE svg PUBLIC "-//W3C//DTD SVG 20010904//EN"
 "http://www.w3.org/TR/2001/REC-SVG-20010904/DTD/svg10.dtd">
<svg version="1.0" xmlns="http://www.w3.org/2000/svg"
 width="736.000000pt" height="736.000000pt" viewBox="0 0 736.000000 736.000000"
 preserveAspectRatio="xMidYMid meet">
<metadata>
Created by potrace 1.11, written by Peter Selinger 2001-2013
</metadata>
<g transform="translate(0.000000,736.000000) scale(0.100000,-0.100000)"
fill="#000000" stroke="none">
<path d="M3428 7345 c-1 -2 -42 -6 -90 -10 -49 -3 -98 -8 -110 -11 -13 -2 -46
-7 -74 -9 -110 -12 -429 -85 -594 -137 -256 -81 -594 -238 -824 -383 -104 -65
-297 -202 -360 -255 -177 -148 -341 -307 -461 -446 -94 -108 -99 -114 -184
-229 -107 -143 -121 -163 -121 -169 0 -2 -17 -31 -38 -63 -142 -217 -284 -516
-378 -799 -25 -76 -47 -146 -49 -154 -2 -8 -11 -44 -20 -80 -9 -36 -19 -73
-21 -83 -2 -10 -5 -26 -8 -35 -3 -9 -8 -30 -11 -47 -2 -16 -7 -41 -10 -55 -5
-26 -20 -118 -30 -185 -4 -22 -8 -50 -10 -61 -13 -83 -20 -235 -20 -454 0
-220 10 -433 20 -450 2 -3 6 -30 10 -60 6 -52 19 -135 30 -190 3 -14 8 -38 10
-53 19 -103 81 -322 128 -458 346 -978 1083 -1766 2030 -2168 112 -48 248 -99
292 -111 17 -5 77 -23 135 -40 58 -17 148 -40 200 -51 52 -12 104 -23 115 -25
51 -11 232 -37 345 -49 120 -13 649 -14 710 -2 14 3 48 8 75 12 110 14 192 26
240 35 28 6 59 12 70 14 11 2 52 12 90 21 39 9 79 18 89 20 37 8 201 58 217
66 9 4 27 10 40 13 99 20 516 211 670 306 45 28 83 50 85 50 23 0 351 243 475
351 175 154 313 299 465 489 86 107 294 407 294 425 0 3 11 24 25 46 67 105
193 379 260 566 54 147 125 407 149 538 9 51 16 92 21 115 3 14 7 45 10 70 3
25 7 54 9 66 27 134 29 760 2 900 -2 12 -7 45 -11 75 -9 73 -43 250 -62 324
-8 33 -17 69 -19 79 -16 81 -105 348 -165 491 -58 141 -185 386 -268 518 -71
114 -212 316 -244 349 -7 7 -32 38 -57 68 -84 103 -265 291 -370 385 -394 352
-870 621 -1368 774 -73 22 -143 43 -155 45 -12 2 -60 13 -107 25 -97 22 -118
27 -210 41 -36 6 -76 13 -90 15 -14 3 -52 8 -85 11 -33 3 -91 10 -130 14 -68
7 -550 12 -557 5z m-904 -1637 c117 -383 188 -554 331 -803 139 -243 422 -631
614 -841 25 -28 71 -79 101 -114 30 -35 60 -68 65 -74 6 -6 53 -60 105 -121
52 -60 99 -115 105 -121 15 -16 125 -141 180 -204 26 -30 51 -59 56 -64 16
-17 183 136 257 237 159 215 249 449 425 1112 41 154 77 289 79 300 3 17 -9
22 -112 42 -182 35 -344 66 -360 68 -8 1 -32 5 -53 10 -37 7 -38 8 -32 44 3
20 7 43 10 51 4 15 14 73 20 117 2 11 5 29 9 40 3 10 8 38 11 63 4 24 9 48 12
52 2 5 6 21 9 36 8 52 26 152 28 152 0 0 53 -9 116 -20 354 -63 518 -91 545
-95 17 -3 53 -9 80 -15 45 -9 344 -60 352 -60 2 0 3 -15 2 -32 0 -18 2 -114 7
-213 13 -313 17 -287 -141 -845 -157 -558 -237 -778 -358 -985 -90 -154 -237
-318 -412 -460 -38 -31 -74 -61 -79 -65 -8 -8 47 -78 213 -270 52 -61 344
-404 391 -460 25 -29 88 -103 140 -165 189 -221 180 -209 161 -225 -10 -8 -51
-44 -91 -80 -40 -36 -78 -69 -84 -75 -6 -5 -47 -41 -91 -80 -90 -79 -87 -76
-143 -127 -23 -21 -45 -38 -50 -38 -5 0 -21 15 -35 32 -13 18 -35 44 -49 58
-13 14 -48 54 -78 90 -30 36 -59 70 -65 76 -5 6 -21 24 -35 40 -13 16 -128
149 -255 295 -126 146 -252 292 -280 324 -27 32 -57 66 -65 75 -8 8 -69 79
-135 155 -66 77 -132 154 -147 170 -31 35 -56 63 -108 125 -21 25 -47 54 -57
66 -10 12 -43 50 -73 85 -30 35 -73 84 -95 109 -22 25 -67 77 -100 115 -33 39
-64 75 -70 81 -5 6 -23 26 -39 45 -16 19 -43 50 -60 70 -17 19 -53 61 -81 94
-27 32 -54 63 -60 69 -5 6 -37 43 -70 81 -33 39 -76 87 -96 108 l-35 39 -28
-37 c-43 -56 -112 -192 -140 -276 -37 -112 -78 -326 -92 -479 -2 -30 -7 -77
-9 -105 -5 -46 -14 -610 -19 -1152 -1 -122 -5 -225 -10 -230 -4 -4 -156 -8
-337 -8 l-329 0 -1 40 c-1 72 3 577 6 700 10 414 17 636 20 680 9 123 17 211
21 229 2 10 6 44 10 75 22 200 105 475 200 663 62 123 177 299 235 358 8 8 27
32 43 52 l27 37 -92 138 c-179 266 -286 468 -363 683 -26 70 -106 344 -106
360 0 11 348 143 368 140 1 0 32 8 70 19 197 58 191 57 196 39z"/>
</g>
</svg>
