<svg width="42" height="55" viewBox="0 0 42 55" fill="none" xmlns="http://www.w3.org/2000/svg">
<path d="M32.7565 0.665527V8.6474H40.7383L32.7565 0.665527Z" fill="#D39C50"/>
<path d="M31.9127 10.3351C31.689 10.3351 31.4744 10.2462 31.3161 10.088C31.1579 9.92974 31.069 9.71513 31.069 9.49135V0.183105H1.53774C1.3068 0.183105 1.08533 0.274845 0.922029 0.438142C0.758732 0.60144 0.666992 0.822918 0.666992 1.05386V53.3664C0.666992 53.5973 0.758732 53.8188 0.922029 53.9821C1.08533 54.1454 1.3068 54.2371 1.53774 54.2371H40.3502C40.5812 54.2371 40.8027 54.1454 40.966 53.9821C41.1292 53.8188 41.221 53.5973 41.221 53.3664V10.3351H31.9127ZM5.99696 19.3759C5.83878 19.2177 5.74992 19.0031 5.74992 18.7794C5.74992 18.5556 5.83878 18.3411 5.99696 18.1828L7.93758 16.2422C6.86364 15.1034 6.14664 13.675 5.87508 12.1334C5.60352 10.5918 5.78928 9.00444 6.40944 7.56719C7.0296 6.12995 8.05701 4.90573 9.36488 4.04564C10.6727 3.18555 12.2038 2.72722 13.7692 2.72722C15.3345 2.72722 16.8656 3.18555 18.1734 4.04564C19.4813 4.90573 20.5087 6.12995 21.1289 7.56719C21.749 9.00444 21.9348 10.5918 21.6632 12.1334C21.3917 13.675 20.6747 15.1034 19.6007 16.2422L21.5414 18.1828C21.622 18.2607 21.6862 18.3538 21.7305 18.4567C21.7747 18.5596 21.7979 18.6704 21.7989 18.7824C21.7999 18.8944 21.7785 19.0055 21.7361 19.1092C21.6937 19.2129 21.631 19.3071 21.5518 19.3863C21.4726 19.4656 21.3784 19.5282 21.2747 19.5706C21.171 19.6131 21.0599 19.6344 20.9479 19.6334C20.8358 19.6325 20.7251 19.6092 20.6222 19.565C20.5192 19.5208 20.4261 19.4565 20.3483 19.3759L18.3233 17.3509C17.7763 17.7277 17.1845 18.035 16.5616 18.2655L19.0084 20.7124C19.089 20.7902 19.1533 20.8833 19.1975 20.9863C19.2417 21.0892 19.265 21.1999 19.266 21.312C19.267 21.424 19.2456 21.5351 19.2032 21.6388C19.1608 21.7425 19.0981 21.8367 19.0189 21.9159C18.9397 21.9951 18.8455 22.0578 18.7418 22.1002C18.6381 22.1426 18.527 22.164 18.4149 22.163C18.3029 22.162 18.1922 22.1388 18.0892 22.0945C17.9863 22.0503 17.8932 21.986 17.8154 21.9054L14.6386 18.7287C14.0622 18.794 13.4803 18.794 12.9039 18.7287L9.72718 21.9054C9.56804 22.0591 9.35491 22.1442 9.13369 22.1423C8.91246 22.1403 8.70083 22.0516 8.54439 21.8952C8.38796 21.7387 8.29922 21.5271 8.2973 21.3059C8.29537 21.0847 8.38042 20.8715 8.53412 20.7124L10.981 18.2655C10.3567 18.0339 9.7637 17.7252 9.21587 17.3467L7.19087 19.3759C7.03264 19.5341 6.81807 19.6229 6.59434 19.6229C6.3706 19.6229 6.15603 19.5341 5.9978 19.3759H5.99696ZM23.4752 49.1476H7.44399C7.22021 49.1476 7.0056 49.0587 6.84737 48.9005C6.68914 48.7422 6.60024 48.5276 6.60024 48.3039C6.60024 48.0801 6.68914 47.8655 6.84737 47.7072C7.0056 47.549 7.22021 47.4601 7.44399 47.4601H23.4752C23.699 47.4601 23.9136 47.549 24.0719 47.7072C24.2301 47.8655 24.319 48.0801 24.319 48.3039C24.319 48.5276 24.2301 48.7422 24.0719 48.9005C23.9136 49.0587 23.699 49.1476 23.4752 49.1476ZM25.1627 44.0851H7.44399C7.22021 44.0851 7.0056 43.9962 6.84737 43.838C6.68914 43.6797 6.60024 43.4651 6.60024 43.2414C6.60024 43.0176 6.68914 42.803 6.84737 42.6447C7.0056 42.4865 7.22021 42.3976 7.44399 42.3976H25.1627C25.3865 42.3976 25.6011 42.4865 25.7594 42.6447C25.9176 42.803 26.0065 43.0176 26.0065 43.2414C26.0065 43.4651 25.9176 43.6797 25.7594 43.838C25.6011 43.9962 25.3865 44.0851 25.1627 44.0851ZM29.3815 44.0851H28.5377C28.314 44.0851 28.0994 43.9962 27.9411 43.838C27.7829 43.6797 27.694 43.4651 27.694 43.2414C27.694 43.0176 27.7829 42.803 27.9411 42.6447C28.0994 42.4865 28.314 42.3976 28.5377 42.3976H29.3815C29.6053 42.3976 29.8199 42.4865 29.9781 42.6447C30.1363 42.803 30.2252 43.0176 30.2252 43.2414C30.2252 43.4651 30.1363 43.6797 29.9781 43.838C29.8199 43.9962 29.6053 44.0851 29.3815 44.0851ZM32.7565 44.0851H31.9127C31.689 44.0851 31.4744 43.9962 31.3161 43.838C31.1579 43.6797 31.069 43.4651 31.069 43.2414C31.069 43.0176 31.1579 42.803 31.3161 42.6447C31.4744 42.4865 31.689 42.3976 31.9127 42.3976H32.7565C32.9803 42.3976 33.1949 42.4865 33.3531 42.6447C33.5113 42.803 33.6002 43.0176 33.6002 43.2414C33.6002 43.4651 33.5113 43.6797 33.3531 43.838C33.1949 43.9962 32.9803 44.0851 32.7565 44.0851ZM34.444 40.7101H7.44399C7.22021 40.7101 7.0056 40.6212 6.84737 40.463C6.68914 40.3047 6.60024 40.0901 6.60024 39.8664C6.60024 39.6426 6.68914 39.428 6.84737 39.2697C7.0056 39.1115 7.22021 39.0226 7.44399 39.0226H34.444C34.6678 39.0226 34.8824 39.1115 35.0406 39.2697C35.1988 39.428 35.2877 39.6426 35.2877 39.8664C35.2877 40.0901 35.1988 40.3047 35.0406 40.463C34.8824 40.6212 34.6678 40.7101 34.444 40.7101ZM34.444 37.3351H7.44399C7.22021 37.3351 7.0056 37.2462 6.84737 37.088C6.68914 36.9297 6.60024 36.7151 6.60024 36.4914C6.60024 36.2676 6.68914 36.053 6.84737 35.8947C7.0056 35.7365 7.22021 35.6476 7.44399 35.6476H34.444C34.6678 35.6476 34.8824 35.7365 35.0406 35.8947C35.1988 36.053 35.2877 36.2676 35.2877 36.4914C35.2877 36.7151 35.1988 36.9297 35.0406 37.088C34.8824 37.2462 34.6678 37.3351 34.444 37.3351ZM6.60024 33.1164C6.60024 32.8926 6.68914 32.678 6.84737 32.5197C7.0056 32.3615 7.22021 32.2726 7.44399 32.2726H24.319C24.5428 32.2726 24.7574 32.3615 24.9156 32.5197C25.0738 32.678 25.1627 32.8926 25.1627 33.1164C25.1627 33.3401 25.0738 33.5547 24.9156 33.713C24.7574 33.8712 24.5428 33.9601 24.319 33.9601H7.44399C7.22021 33.9601 7.0056 33.8712 6.84737 33.713C6.68914 33.5547 6.60024 33.3401 6.60024 33.1164ZM34.444 30.5851H7.44399C7.22021 30.5851 7.0056 30.4962 6.84737 30.338C6.68914 30.1797 6.60024 29.9651 6.60024 29.7414C6.60024 29.5176 6.68914 29.303 6.84737 29.1447C7.0056 28.9865 7.22021 28.8976 7.44399 28.8976H34.444C34.6678 28.8976 34.8824 28.9865 35.0406 29.1447C35.1988 29.303 35.2877 29.5176 35.2877 29.7414C35.2877 29.9651 35.1988 30.1797 35.0406 30.338C34.8824 30.4962 34.6678 30.5851 34.444 30.5851ZM34.444 27.2101H7.44399C7.22021 27.2101 7.0056 27.1212 6.84737 26.963C6.68914 26.8047 6.60024 26.5901 6.60024 26.3664C6.60024 26.1426 6.68914 25.928 6.84737 25.7697C7.0056 25.6115 7.22021 25.5226 7.44399 25.5226H34.444C34.6678 25.5226 34.8824 25.6115 35.0406 25.7697C35.1988 25.928 35.2877 26.1426 35.2877 26.3664C35.2877 26.5901 35.1988 26.8047 35.0406 26.963C34.8824 27.1212 34.6678 27.2101 34.444 27.2101ZM24.319 17.9289C24.319 17.7051 24.4079 17.4905 24.5661 17.3322C24.7244 17.174 24.939 17.0851 25.1627 17.0851H26.0065C26.2303 17.0851 26.4449 17.174 26.6031 17.3322C26.7613 17.4905 26.8502 17.7051 26.8502 17.9289C26.8502 18.1526 26.7613 18.3672 26.6031 18.5255C26.4449 18.6837 26.2303 18.7726 26.0065 18.7726H25.1627C24.939 18.7726 24.7244 18.6837 24.5661 18.5255C24.4079 18.3672 24.319 18.1526 24.319 17.9289ZM27.694 17.9289C27.694 17.7051 27.7829 17.4905 27.9411 17.3322C28.0994 17.174 28.314 17.0851 28.5377 17.0851H29.3815C29.6053 17.0851 29.8199 17.174 29.9781 17.3322C30.1363 17.4905 30.2252 17.7051 30.2252 17.9289C30.2252 18.1526 30.1363 18.3672 29.9781 18.5255C29.8199 18.6837 29.6053 18.7726 29.3815 18.7726H28.5377C28.314 18.7726 28.0994 18.6837 27.9411 18.5255C27.7829 18.3672 27.694 18.1526 27.694 17.9289ZM31.069 17.9289C31.069 17.7051 31.1579 17.4905 31.3161 17.3322C31.4744 17.174 31.689 17.0851 31.9127 17.0851H32.7565C32.9803 17.0851 33.1949 17.174 33.3531 17.3322C33.5113 17.4905 33.6002 17.7051 33.6002 17.9289C33.6002 18.1526 33.5113 18.3672 33.3531 18.5255C33.1949 18.6837 32.9803 18.7726 32.7565 18.7726H31.9127C31.689 18.7726 31.4744 18.6837 31.3161 18.5255C31.1579 18.3672 31.069 18.1526 31.069 17.9289ZM36.1315 15.3976H25.1627C24.939 15.3976 24.7244 15.3087 24.5661 15.1505C24.4079 14.9922 24.319 14.7776 24.319 14.5539C24.319 14.3301 24.4079 14.1155 24.5661 13.9572C24.7244 13.799 24.939 13.7101 25.1627 13.7101H36.1315C36.3553 13.7101 36.5699 13.799 36.7281 13.9572C36.8863 14.1155 36.9752 14.3301 36.9752 14.5539C36.9752 14.7776 36.8863 14.9922 36.7281 15.1505C36.5699 15.3087 36.3553 15.3976 36.1315 15.3976Z" fill="#D39C50"/>
<path d="M13.7721 17.085C15.0237 17.085 16.2472 16.7138 17.2878 16.0185C18.3285 15.3231 19.1396 14.3348 19.6185 13.1785C20.0975 12.0222 20.2228 10.7498 19.9786 9.52228C19.7345 8.29475 19.1318 7.16718 18.2468 6.28218C17.3618 5.39717 16.2342 4.79448 15.0067 4.55031C13.7791 4.30613 12.5067 4.43145 11.3504 4.91041C10.1941 5.38937 9.20579 6.20047 8.51045 7.24112C7.81511 8.28178 7.44397 9.50525 7.44397 10.7568C7.44576 12.4346 8.11304 14.0432 9.29941 15.2295C10.4858 16.4159 12.0943 17.0832 13.7721 17.085ZM12.8836 9.40262C12.7845 9.45221 12.6766 9.48178 12.5661 9.48966C12.4555 9.49754 12.3445 9.48357 12.2394 9.44855C12.1342 9.41353 12.037 9.35814 11.9533 9.28555C11.8695 9.21295 11.8009 9.12458 11.7513 9.02546C11.7017 8.92635 11.6722 8.81844 11.6643 8.7079C11.6564 8.59735 11.6704 8.48634 11.7054 8.3812C11.7404 8.27605 11.7958 8.17883 11.8684 8.0951C11.941 8.01136 12.0294 7.94274 12.1285 7.89315L13.816 7.0494C13.9446 6.98494 14.0876 6.95445 14.2313 6.96082C14.3751 6.96719 14.5148 7.01022 14.6372 7.0858C14.7597 7.16139 14.8607 7.26703 14.9308 7.39269C15.0009 7.51834 15.0377 7.65983 15.0377 7.80371V12.8662H15.8815C16.1052 12.8662 16.3199 12.9551 16.4781 13.1133C16.6363 13.2716 16.7252 13.4862 16.7252 13.71C16.7252 13.9337 16.6363 14.1484 16.4781 14.3066C16.3199 14.4648 16.1052 14.5537 15.8815 14.5537H12.5065C12.2827 14.5537 12.0681 14.4648 11.9098 14.3066C11.7516 14.1484 11.6627 13.9337 11.6627 13.71C11.6627 13.4862 11.7516 13.2716 11.9098 13.1133C12.0681 12.9551 12.2827 12.8662 12.5065 12.8662H13.3502V9.1689L12.8836 9.40262Z" fill="#D39C50"/>
</svg>
