<svg viewBox="0 0 18 21" fill="none" xmlns="http://www.w3.org/2000/svg">
<path d="M16.6432 8.09408L4.71837 0.547495C3.85563 0.00220437 2.81257 -0.0204672 1.92811 0.486849C1.04364 0.994084 0.515625 1.91799 0.515625 2.95809V17.9825C0.515625 19.5552 1.7499 20.8415 3.26692 20.85C3.27107 20.85 3.27521 20.85 3.27927 20.85C3.75334 20.85 4.24737 20.6975 4.70878 20.4084C5.07997 20.1759 5.19729 19.6785 4.97082 19.2975C4.74435 18.9163 4.25979 18.7959 3.88872 19.0284C3.6729 19.1636 3.46212 19.2335 3.2754 19.2334C2.70302 19.2302 2.09018 18.7269 2.09018 17.9825V2.95813C2.09018 2.51194 2.31669 2.11572 2.69604 1.89811C3.07543 1.6805 3.52281 1.69022 3.89242 1.92386L15.8173 9.47044C16.1757 9.69699 16.3808 10.0748 16.3799 10.5069C16.379 10.939 16.1724 11.3159 15.8121 11.5417L7.19036 16.9613C6.81952 17.1944 6.70295 17.692 6.93001 18.0727C7.15703 18.4534 7.64172 18.5731 8.01255 18.34L16.6332 12.921C17.4586 12.4041 17.9526 11.5029 17.9545 10.5101C17.9565 9.51752 17.4661 8.61423 16.6432 8.09408Z" fill="white"/>
</svg>
