<svg width="22" height="19" viewBox="0 0 22 19" fill="none" xmlns="http://www.w3.org/2000/svg">
<path d="M21.3755 3.33969C21.3341 3.33821 20.4845 3.30847 19.2372 3.33705V0.685152C19.2372 0.294225 18.9153 -0.015824 18.5363 0.0164736C16.0493 0.231777 12.8853 1.37137 11 3.44991C9.11473 1.37137 5.95066 0.231777 3.46371 0.0164736C3.08539 -0.0154662 2.76281 0.293196 2.76281 0.685152V3.40876C2.05415 3.38102 1.38384 3.36148 0.666255 3.3396C0.304333 3.32775 0 3.63006 0 4.01029V16.2302C0 16.5833 0.263871 16.876 0.60362 16.8997C3.17753 17.0793 7.48906 17.0995 10.7462 18.5401C11.0365 18.6687 11.297 18.521 11.2539 18.5401C14.5109 17.0996 18.8217 17.0794 21.3965 16.8997C21.7362 16.876 22.0001 16.5833 22.0001 16.2302V4.01029C22 3.6488 21.7239 3.35231 21.3755 3.33969ZM17.9431 1.43985V12.9403C16.0771 13.3732 13.7124 14.2968 11.6471 16.2553C11.6471 15.6646 11.6471 5.04082 11.6471 4.72133C13.0628 2.88949 15.7441 1.78538 17.9431 1.43985ZM4.05693 1.43985C6.25594 1.78538 8.93718 2.88949 10.3529 4.72133V16.2553C8.28762 14.2968 5.92288 13.3732 4.05693 12.9403V1.43985ZM1.29412 15.5988V4.70134C1.75746 4.71556 2.25302 4.73162 2.76281 4.7518V13.4872C2.76281 13.8101 2.98454 14.0872 3.29051 14.1467C4.768 14.4343 6.68934 15.0585 8.48005 16.4026C5.92525 15.8084 3.25108 15.7129 1.29412 15.5988ZM20.7059 15.5988C18.7521 15.7127 16.0757 15.8081 13.5199 16.4026C15.3106 15.0585 17.232 14.4343 18.7094 14.1467C19.0154 14.0872 19.2371 13.8101 19.2371 13.4872V4.67951C19.8327 4.66569 20.34 4.66551 20.7058 4.66895V15.5988H20.7059Z" fill="#D39C50"/>
</svg>
