<svg width="17" height="14" viewBox="0 0 17 14" fill="none" xmlns="http://www.w3.org/2000/svg">
<path class="checkbox-path1" d="M16.0809 2.77965L14.9034 1.60211C14.7764 1.47508 14.5705 1.47508 14.4434 1.60211L8.38378 7.66143L6.22207 5.49988C6.09505 5.37286 5.88914 5.37286 5.76211 5.49988L4.58457 6.67743C4.52358 6.73842 4.48926 6.82121 4.48926 6.90741C4.48926 6.99361 4.52358 7.0764 4.58457 7.13739L8.1538 10.7063C8.2174 10.7699 8.30051 10.8016 8.38378 10.8016C8.46722 10.8016 8.55001 10.7699 8.61376 10.7063L16.0808 3.23961C16.1418 3.17862 16.1761 3.09583 16.1761 3.00963C16.1761 2.92343 16.1419 2.84064 16.0809 2.77965Z" fill="#D39C50"/>
<path class="checkbox-path2" d="M12.1441 12.1907H1.80272V1.8491H12.3906L13.7706 0.547946C13.7706 0.368386 13.6249 0.222656 13.4453 0.222656H0.501559C0.321999 0.222656 0.17627 0.368386 0.17627 0.547946V13.4919C0.17627 13.6714 0.321999 13.8171 0.501559 13.8171H13.4455C13.6252 13.8171 13.7708 13.6714 13.7708 13.4919V7.33088L12.1443 9.03864L12.1441 12.1907Z" fill="#D39C50"/>
</svg>
